<svg width="30" height="30" viewBox="0 0 30 30" fill="none" xmlns="http://www.w3.org/2000/svg">
<path d="M15 28.5C7.6 28.5 1.5 22.4 1.5 15C1.5 7.6 7.6 1.5 15 1.5C22.4 1.5 28.5 7.6 28.5 15C28.5 22.4 22.4 28.5 15 28.5Z" fill="#FFB5D2"/>
<path d="M15 2C22.2 2 28 7.8 28 15C28 22.2 22.2 28 15 28C7.8 28 2 22.2 2 15C2 7.8 7.8 2 15 2ZM15 1C7.3 1 1 7.3 1 15C1 22.7 7.3 29 15 29C22.7 29 29 22.7 29 15C29 7.3 22.7 1 15 1Z" fill="#EA4C89"/>
<path d="M20.7 27.4998C20.7 27.2998 18.4 11.9998 9.30005 2.4998L10 1.7998C19.3 11.4998 21.6 27.1998 21.7 27.2998L20.7 27.4998Z" fill="#EA4C89"/>
<path d="M4.10019 14C2.5002 14 1.4002 13.9 1.2002 13.9L1.3002 12.9C1.5002 12.9 18.9002 14.3 24.5002 5L25.4002 5.5C20.7002 13.1 9.4002 14 4.10019 14ZM6.5002 25.6L5.60019 25.2C5.70019 25 12.3002 10.2 29.1002 15.9L28.8002 16.8C12.8002 11.5 6.5002 25.5 6.5002 25.6Z" fill="#EA4C89"/>
</svg>
